# xmcd
#
# Track frame offsets:
#	150
#	17105
#	26126
#	44692
#	60511
#	74468
#	87893
#	106281
#	130355
#	148230
#	162854
#	178982
#	193605
#	209194
#	225928
#	244808
#	263531
#	281414
#	296670
#	311042
#
# Disc length: 4265 seconds
#
# Revision: 0
# Processed by: cddbd v1.5.2PL0 Copyright (c) Steve Scherf et al.
# Submitted via: EasyCDDAExtractor 2011.0.0.0
#
DISCID=3410a714
DTITLE=이화챔버콰이어 - 이화챔버콰이어 13 (중앙아트 여성성가 13집 수록곡)
DYEAR=1900
DGENRE=Acapella
TTITLE0=주는 포도나무
TTITLE1=할렐루야 주를 찬양해
TTITLE2=오 구주 예수여
TTITLE3=내가 주와 함께
TTITLE4=십자가 그늘 밑에
TTITLE5=이 몸의 소망 무언가
TTITLE6=그가 찔림은
TTITLE7=하나님의 은혜
TTITLE8=빛나고 높은 보좌와
TTITLE9=주 내 눈믈 씻기리
TTITLE10=사랑
TTITLE11=주 찬양
TTITLE12=하나님이 세상을 사랑하심
TTITLE13=내 주의 보혈은
TTITLE14=주 믿으라
TTITLE15=너의 하나님 여호와가
TTITLE16=주 날 인도하시네
TTITLE17=하나님은 나의 아버지
TTITLE18=평화의 왕 예수
TTITLE19=기쁘다 구주 오셨다
EXTD=
EXTT0=
EXTT1=
EXTT2=
EXTT3=
EXTT4=
EXTT5=
EXTT6=
EXTT7=
EXTT8=
EXTT9=
EXTT10=
EXTT11=
EXTT12=
EXTT13=
EXTT14=
EXTT15=
EXTT16=
EXTT17=
EXTT18=
EXTT19=
PLAYORDER=
